<svg xmlns="http://www.w3.org/2000/svg" version="1.1">
  <rect
     width="364.1373"
     height="45.659218"
     x="-163.43195"
     y="95.538696"
     fill="blue" />
  <rect
     width="5.8586302"
     height="3.614583"
     x="20.169592"
     y="180.7007"
     fill="black" />
  <rect
     fill="black"
     width="23.62351"
     height="1.50238097"
     x="45.26265"
     y="163.29092" />
  <rect
     width="23.623512"
     height="1.50238097"
     x="25.788681"
     y="135.82112"
     fill="black" />
  <rect
     fill="black"
     width="6.0476193"
     height="3.11"
     x="106.3058"
     y="117.16518" />
  <rect
     fill="black"
     width="5.8586302"
     height="3.3145835"
     x="87.406998"
     y="130.48885" />
  <rect
     width="23.623512"
     height="1.5238097"
     x="134.56187"
     y="94.09483"
     fill="black" />
  <rect
     fill="black"
     width="6.0476193"
     height="15.049107"
     x="112.25893"
     y="107.05432" />
  <rect
     width="31.938988"
     height="1.5238097"
     x="169.56508"
     y="107.1488"
     fill="black" />
  <rect
     width="6.0476213"
     height="32.007"
     x="195.45644"
     y="45.349701"
     fill="black" />
  <rect
     width="12.095239"
     height="3.006311"
     x="183.96249"
     y="79.62816"
     fill="black" />
  <rect
     fill="black"
     width="23.623512"
     height="1.50238097"
     x="-99.391457"
     y="92.34219" />
  <rect
     fill="black"
     width="23.623512"
     height="1.5238097"
     x="-19.438873"
     y="92.55589" />
  <rect
     fill="black"
     width="10.519648"
     height="6.005261"
     x="-102.08186"
     y="125.2944" />
  <rect
     fill="black"
     width="23.623512"
     height="1.50238097"
     x="-136.36232"
     y="110.53685" />
  <rect
     fill="black"
     width="6.0476193"
     height="15.049107"
     x="-52.17635"
     y="107.00935" />
  <circle
     cx="-157.00168"
     cy="132.24609"
     r="4.7036037"
     fill="green" />
  <circle
     cx="-57.826958"
     cy="132.39592"
     r="4.7036037"
     fill="red" />
  <rect
     width="5.8586302"
     height="3.314583"
     x="-46.524246"
     y="117.703"
     fill="black" />
  <circle
     cx="-36.853447"
     cy="132.54573"
     r="4.7036037"
     fill="red" />
  <circle
     cx="37.752312"
     cy="80.52407"
     r="4.7036037"
     fill="red" />
  <rect
     fill="black"
     width="23.62351"
     height="1.50238097"
     x="26.090366"
     y="75.30422" />
  <circle
     cx="129.28668"
     cy="132.54572"
     r="4.7036037"
     fill="red" />
  <circle
     cx="189.66042"
     cy="84.86858"
     r="4.7036037"
     fill="red" />
  <circle
     cx="79.399704"
     cy="132.39592"
     r="4.7036037"
     fill="red" />
  <circle
     cx="51.984333"
     cy="107.97676"
     r="4.7036037"
     fill="red" />
</svg>
